<svg width="1600" height="1100" viewBox="0 0 1600 1100" fill="none" xmlns="http://www.w3.org/2000/svg">
<rect width="1600" height="1100" rx="48" fill="#F8F2E7"/>
<rect x="0" y="0" width="1600" height="520" fill="url(#paint0_linear_140_12)"/>
<rect y="520" width="1600" height="580" fill="#FBF7EF"/>
<path d="M160 450L800 120L1440 450" stroke="#43352B" stroke-width="30" stroke-linecap="round" stroke-linejoin="round"/>
<path d="M265 458L800 190L1335 458" stroke="#A14D20" stroke-width="12" stroke-linecap="round" stroke-linejoin="round" stroke-dasharray="18 18"/>
<path d="M280 495H1320V865H280V495Z" fill="#FFFDF8" stroke="#43352B" stroke-width="20"/>
<path d="M800 218V866" stroke="#43352B" stroke-width="20"/>
<path d="M320 480V160L420 160V430" stroke="#43352B" stroke-width="18" stroke-linecap="round" stroke-linejoin="round"/>
<path d="M1280 480V220L1185 220V445" stroke="#43352B" stroke-width="18" stroke-linecap="round" stroke-linejoin="round"/>
<rect x="335" y="548" width="1130" height="28" rx="14" fill="#544236"/>
<rect x="360" y="576" width="52" height="164" rx="18" fill="#7A6151"/>
<rect x="460" y="576" width="52" height="164" rx="18" fill="#7A6151"/>
<rect x="560" y="576" width="52" height="164" rx="18" fill="#7A6151"/>
<rect x="660" y="576" width="52" height="164" rx="18" fill="#7A6151"/>
<rect x="760" y="576" width="52" height="164" rx="18" fill="#7A6151"/>
<rect x="860" y="576" width="52" height="164" rx="18" fill="#7A6151"/>
<rect x="960" y="576" width="52" height="164" rx="18" fill="#7A6151"/>
<rect x="1060" y="576" width="52" height="164" rx="18" fill="#7A6151"/>
<rect x="1160" y="576" width="52" height="164" rx="18" fill="#7A6151"/>
<rect x="1260" y="576" width="52" height="164" rx="18" fill="#7A6151"/>
<path d="M350 760C350 744.536 362.536 732 378 732H1222C1237.46 732 1250 744.536 1250 760V778H350V760Z" fill="#E9B80E"/>
<path d="M340 778H1260V836C1260 851.464 1247.46 864 1232 864H368C352.536 864 340 851.464 340 836V778Z" fill="#F2C53D"/>
<path d="M365 690C365 674.536 377.536 662 393 662H510C525.464 662 538 674.536 538 690V742H365V690Z" fill="#F3D56B"/>
<path d="M540 690C540 674.536 552.536 662 568 662H685C700.464 662 713 674.536 713 690V742H540V690Z" fill="#F3D56B"/>
<path d="M715 690C715 674.536 727.536 662 743 662H860C875.464 662 888 674.536 888 690V742H715V690Z" fill="#F3D56B"/>
<path d="M890 690C890 674.536 902.536 662 918 662H1035C1050.46 662 1063 674.536 1063 690V742H890V690Z" fill="#F3D56B"/>
<path d="M1065 690C1065 674.536 1077.54 662 1093 662H1210C1225.46 662 1238 674.536 1238 690V742H1065V690Z" fill="#F3D56B"/>
<path d="M401 664C426 625 470 600 524 600H1108C1148 600 1185 617 1210 646L1178 670C1158 646 1132 634 1103 634H518C479 634 447 651 427 678L401 664Z" fill="#F8E18A"/>
<circle cx="1135" cy="330" r="74" fill="#F8D56F"/>
<circle cx="1135" cy="330" r="48" fill="#FFF4BF"/>
<path d="M940 438H1180" stroke="#D46B2C" stroke-width="12" stroke-linecap="round"/>
<path d="M953 404H1200" stroke="#D46B2C" stroke-width="8" stroke-linecap="round" opacity="0.6"/>
<path d="M930 560C930 524.654 958.654 496 994 496H1178C1213.35 496 1242 524.654 1242 560V714H930V560Z" fill="#1E293B"/>
<rect x="968" y="544" width="58" height="170" rx="24" fill="#F4F4F5"/>
<circle cx="996" cy="594" r="16" fill="#0F172A"/>
<path d="M1072 560C1072 536.804 1090.8 518 1114 518H1147C1170.2 518 1189 536.804 1189 560V714H1072V560Z" fill="#334155"/>
<path d="M1065 718H1195L1234 780H1026L1065 718Z" fill="#D97706"/>
<path d="M1000 728L1053 780" stroke="#F8FAFC" stroke-width="10" stroke-linecap="round"/>
<path d="M1148 728L1202 780" stroke="#F8FAFC" stroke-width="10" stroke-linecap="round"/>
<rect x="395" y="888" width="280" height="110" rx="28" fill="#FFFFFF" stroke="#E5E7EB" stroke-width="8"/>
<text x="455" y="938" fill="#111827" font-family="Arial, sans-serif" font-size="34" font-weight="700">Single-day</text>
<text x="455" y="976" fill="#6B7280" font-family="Arial, sans-serif" font-size="28">installation in most homes</text>
<rect x="720" y="888" width="300" height="110" rx="28" fill="#FFFFFF" stroke="#E5E7EB" stroke-width="8"/>
<text x="780" y="938" fill="#111827" font-family="Arial, sans-serif" font-size="34" font-weight="700">Current regs</text>
<text x="780" y="976" fill="#6B7280" font-family="Arial, sans-serif" font-size="28">installed to recommended depth</text>
<rect x="1065" y="888" width="220" height="110" rx="28" fill="#FFFFFF" stroke="#E5E7EB" stroke-width="8"/>
<text x="1125" y="938" fill="#111827" font-family="Arial, sans-serif" font-size="34" font-weight="700">Yorkshire</text>
<text x="1125" y="976" fill="#6B7280" font-family="Arial, sans-serif" font-size="28">homes covered</text>
<defs>
<linearGradient id="paint0_linear_140_12" x1="800" y1="0" x2="800" y2="520" gradientUnits="userSpaceOnUse">
<stop stop-color="#F5E7CE"/>
<stop offset="1" stop-color="#F8F2E7"/>
</linearGradient>
</defs>
</svg>
